<svg xmlns="http://www.w3.org/2000/svg" viewBox="0 0 2048 880" width="821" height="353"><path transform="translate(0)" d="m0 0h2048v880h-2048z" fill="#FDFDFD"></path><path transform="translate(238,331)" d="m0 0h74l2 2 12 36 11 31 10 29 18 53 15 43 14 40 10 29 11 32v2h-62l-12-36-10-31-114-1-2 9-19 58-1 1h-60l1-5 23-67 15-43 22-64 15-43 15-44 10-29z" fill="#010202"></path><path transform="translate(873,400)" d="m0 0h26l18 3 16 5 16 8 12 9 11 11 9 14 6 12 5 15 3 16 1 8v31l-3 20-7 21-8 15-12 15-11 9-11 7-15 7-15 4-12 2h-32l-17-3-15-5-14-7-11-8-10-9-9-12-9-17-5-15-3-16-1-8v-30l3-21 5-16 5-12 9-14 11-12 8-7 13-8 14-6 15-4z" fill="#010202"></path><path transform="translate(1576,101)" d="m0 0 19 9 19 10 19 9 19 10 52 26 13 7-1 3-118 77-11 7h-2l-3-48-9 2-24 9-25 12-17 10-16 11-14 11-24 22-7 8-11 13-11 15-14 23-8 16-7 16-8 24-6 25-3 19-1 9v43l3 25 6 27 7 24 8 21 14 29 12 20 12 16 8 10 18 20 8 8 8 7 15 12 17 12 20 12 16 8 13 6-3 1-27-11-27-14-24-16-13-10-11-9-12-11-14-14-7-8-11-14-12-17-9-15-12-23-7-15-11-30-7-28-5-32-1-10v-43l3-24 6-31 8-26 11-27 12-23 10-16 12-17 13-16 7-8 9-10 11-11 8-7 16-13 18-13 20-12 20-11 25-11 20-7v-13z" fill="#2A3745"></path><path transform="translate(1772,188)" d="m0 0 9 2 12 5 23 11 27 16 13 10 14 11 13 12 22 22 11 14 11 15 15 25 10 19 11 26 10 32 6 29 3 27v41l-3 27-5 25-7 24-7 20-16 33-14 23-12 16-11 14-12 13-20 20-11 9-14 11-21 14-15 9-28 14-31 12h-3l2 37v16l-5-2-41-21-84-42-10-6v-2l16-10 27-18 19-12 15-10 20-13 34-22h1l1 9 2 40 17-5 26-11 23-12 19-12 21-16 16-15 12-12 9-11 11-14 10-15 12-21 8-17 10-27 6-26 4-24 1-10v-38l-3-26-6-30-6-20-13-33-12-23-10-16-10-14-13-16-11-12-17-17-11-9-17-13-14-9-18-10-21-10z" fill="#2A3745"></path><path transform="translate(1165,400)" d="m0 0h22l16 3 13 5 10 7 8 8 6 10 5 11 4 18 1 10v156h-56l-1-143-2-14-4-10-4-5-9-5-7-2h-22l-13 4-11 8-6 8-5 11-3 12-1 9-1 127h-56v-224h53l1 1 1 32h3l7-10 9-10 10-7 10-5 14-4z" fill="#010102"></path><path transform="translate(427,404)" d="m0 0h60l12 22 14 27 12 22 1 2 5-1 12-23 12-22 13-25 2-2h57l-1 5-36 66-13 24-7 12 2 5 15 29 12 22 18 34 14 26v1h-60l-12-23-14-27-15-29-1-3-5 2-20 40-10 19-10 20-1 1h-59l2-6 9-16 10-18 32-58 9-16-1-5-12-22-13-23-14-25-15-27-4-6z" fill="#010202"></path><path transform="translate(1769,405)" d="m0 0h14l16 4 8 4 9 7 8 9 8 16 4 13 2 12 1 11v21l-3 21-5 16-8 15-9 10-10 7-13 5-13 2-13-1-13-4-11-7-7-6-9-14-5-11-4-15-3-20v-14l2-19 4-16 5-12 8-13 9-9 11-7 12-4z" fill="#0499FF"></path><path transform="translate(1677,405)" d="m0 0 4 1v30l-25 3-13 3-13 7-8 7-8 14-2 5 10-7 11-4 5-1h18l14 4 10 6 9 9 8 16 2 10v18l-3 12-5 10-9 12-12 9-13 6-16 3-16-1-14-4-11-6-10-9-6-7-7-14-4-14-2-16 1-18 5-22 6-13 9-14 9-10 12-9 16-8 12-4 18-3z" fill="#0499FF"></path><path transform="translate(668,404)" d="m0 0h56v224l-56 1z" fill="#010202"></path><path transform="translate(876,448)" d="m0 0h20l13 4 10 6 9 10 5 11 4 16 1 9v24l-2 15-4 13-6 11-6 7-10 6-12 4-16 1-16-3-10-5-8-7-7-11-5-15-2-13v-30l4-20 8-16 9-9 12-6z" fill="#FEFEFE"></path><path transform="translate(1477,405)" d="m0 0h20l15 3 16 8 8 7 6 10 2 7v15l-4 11-9 10-9 7-6 2v1l10 3 9 6 5 4 6 9 3 9 1 5v8l-2 10-7 14-9 9-14 8-16 5-16 2h-10l-21-3-17-6-6-4 7-28 2-1 20 7 10 2h14l11-3 6-4 4-4 2-5v-10l-4-8-9-6-11-3-24-1v-28l5-1 17-1 13-4 6-5 2-4v-9l-3-5-5-4-7-2h-17l-17 5-9 3-8-26 4-4 10-5 15-4z" fill="#0499FF"></path><path transform="translate(272,393)" d="m0 0h4l6 16 27 82 5 15v4h-81l12-37 24-73z" fill="#FEFEFE"></path><path transform="translate(1887,399)" d="m0 0h10l14 4 10 7 6 8 4 9 1 5v10l-3 10-6 9-7 7-10 5-9 2h-10l-13-4-9-6-7-9-4-11v-16l5-12 9-10 12-6z" fill="#0499FF"></path><path transform="translate(1770,436)" d="m0 0h11l6 3 5 6 5 13 2 13 1 26-2 21-4 16-6 9-7 4h-9l-8-5-5-8-4-13-2-14v-33l4-20 6-12z" fill="#FEFEFE"></path><path transform="translate(686,312)" d="m0 0h19l12 5 8 8 4 8 1 3v17l-4 9-5 7-10 6-12 3-13-1-9-4-8-6-6-10-2-10 1-11 4-10 6-7 8-5z" fill="#020202"></path><path transform="translate(1629,491)" d="m0 0h11l9 4 5 5 4 8 1 4v14l-3 10-5 7-10 5h-8l-8-3-6-4-7-14-2-10 1-10 4-7 7-6z" fill="#FEFEFE"></path><path transform="translate(1888,418)" d="m0 0h8l8 3 5 6 2 7-1 10-4 6-6 5-2 1h-10l-8-4-5-8-1-8 3-9 5-6z" fill="#FEFEFE"></path><path transform="translate(1772,188)" d="m0 0 9 2 12 5 11 6 1 2 12 6 6 5 5 5-5-2-10-7-22-12-19-9z" fill="#141A20"></path><path transform="translate(1464,701)" d="m0 0 5 2 10 8 7 6 14 9 1 2-5-2-15-10-13-10-4-3z" fill="#0C1014"></path><path transform="translate(1772,188)" d="m0 0 9 2 12 5 5 3-3 2-23-11z" fill="#215075"></path><path transform="translate(1839,227)" d="m0 0 4 2 11 9 7 7h-3l-12-11-7-5z" fill="#10151A"></path></svg>